#!OML:ASF X:\für Bonn\!DataBase\2005_08_10_Bjorn_Final\c3d\bjorn.ASF
:FULLY-SPECIFIED
:DEGREES
140
root -19.1238 18.7628 -9.415 -172.261 -198.419 -184.82
lowerback -4.46842 5.72831 3.2656
upperback 4.21713 7.47156 -0.614148
thorax 7.42249 3.86114 -1.61567
lowerneck -3.67555 1.06958 5.58358
upperneck 6.63995 1.32402 -3.43822
head 2.85587 0.690886 -2.05703
rclavicle 9.69075e-014 -2.16675e-014
rhumerus -26.3765 24.2965 -99.8889
rradius 88.103
rwrist 9.83048
rhand -23.6934 28.7951
rfingers 7.12502
rthumb 2.77343 -1.16662
lclavicle 9.69075e-014 -2.16675e-014
lhumerus -57.5218 -18.647 97.2441
lradius 71.6258
lwrist 7.53651
lhand -32.5006 -19.1747
lfingers 7.12502
lthumb -5.73206 10.7278
rfemur 9.08687 -9.55275 13.5774
rtibia 30.9552
rfoot 10.0598 11.3535
rtoes -14.9146
lfemur -38.7121 7.21965 -29.5506
ltibia 41.65
lfoot -14.0421 -9.85696
ltoes -9.64374
141
root -19.0235 18.7448 -9.13349 -172.581 -198.526 -184.718
lowerback -4.584 5.76138 2.93972
upperback 4.30938 7.55135 -0.80072
thorax 7.57517 3.89087 -1.6044
lowerneck -3.13125 1.09263 5.70066
upperneck 6.45839 1.37059 -3.35676
head 2.69549 0.722285 -2.04597
rclavicle 1.74931e-014 7.35503e-015
rhumerus -26.8163 25.4333 -100.276
rradius 87.6478
rwrist 10.1482
rhand -22.7995 28.4598
rfingers 7.12502
rthumb 3.63676 -1.48894
lclavicle 1.74931e-014 7.35503e-015
lhumerus -57.0829 -18.1565 96.9495
lradius 72.0306
lwrist 7.3586
lhand -32.2137 -19.3791
lfingers 7.12502
lthumb -5.45508 10.5307
rfemur 8.95931 -9.50675 12.8624
rtibia 32.6553
rfoot 11.4762 11.7689
rtoes -14.2677
lfemur -38.0887 8.21215 -30.4309
ltibia 40.7457
lfoot -13.7049 -9.74969
ltoes -7.04218
142
root -18.9234 18.7234 -8.85384 -172.891 -198.666 -184.622
lowerback -4.70141 5.78597 2.6758
upperback 4.43341 7.61981 -1.02406
thorax 7.77673 3.91964 -1.66382
lowerneck -2.66849 1.12588 5.83512
upperneck 6.20041 1.42509 -3.26245
head 2.52641 0.7564 -2.03374
rclavicle 2.95195e-014 2.82274e-014
rhumerus -27.2052 26.5749 -100.681
rradius 87.1472
rwrist 10.5284
rhand -22.1015 28.0783
rfingers 7.12502
rthumb 4.31075 -1.85781
lclavicle 2.95195e-014 2.82274e-014
lhumerus -56.6207 -17.6862 96.6371
lradius 72.5033
lwrist 7.18731
lhand -32.1041 -19.7946
lfingers 7.12502
lthumb -5.34928 10.1179
rfemur 8.63015 -9.45949 12.1604
rtibia 34.5534
rfoot 12.0953 12.3697
rtoes -14.6761
lfemur -37.4655 9.00358 -31.1636
ltibia 40.2125
lfoot -13.6422 -9.31836
ltoes -4.99928
143
root -18.8251 18.6898 -8.57883 -173.215 -198.821 -184.545
lowerback -4.81234 5.79977 2.49512
upperback 4.60814 7.67223 -1.2739
thorax 8.04472 3.94661 -1.79542
lowerneck -2.28542 1.16265 5.94325
upperneck 5.86545 1.48124 -3.15943
head 2.34723 0.788764 -2.01402
rclavicle 4.07509e-015 7.15625e-015
rhumerus -27.4619 27.6853 -101.072
rradius 86.4861
rwrist 11.0009
rhand -21.7104 27.8935
rfingers 7.12502
rthumb 4.68841 -2.03457
lclavicle 4.07509e-015 7.15625e-015
lhumerus -56.154 -17.1952 96.3036
lradius 73.0649
lwrist 7.02989
lhand -32.0374 -20.4292
lfingers 7.12502
lthumb -5.2848 9.48492
rfemur 8.19554 -9.39157 11.4885
rtibia 36.6003
rfoot 12.0977 13.0044
rtoes -15.0295
lfemur -36.7584 9.5171 -31.705
ltibia 40.0674
lfoot -13.7906 -8.84324
ltoes -1.65721
144
root -18.7292 18.6436 -8.30939 -173.525 -198.998 -184.486
lowerback -4.87034 5.80334 2.35328
upperback 4.75566 7.71127 -1.53697
thorax 8.26025 3.9696 -1.97152
lowerneck -1.96367 1.21547 6.04255
upperneck 5.54523 1.55515 -3.01259
head 2.18549 0.829923 -1.97859
rclavicle -4.13472e-014 1.39149e-014
rhumerus -27.8157 28.6084 -101.553
rradius 85.7478
rwrist 11.6455
rhand -21.6559 27.8135
rfingers 7.12502
rthumb 4.74103 -2.11342
lclavicle -4.13472e-014 1.39149e-014
lhumerus -55.6683 -16.72 96.0004
lradius 73.7371
lwrist 6.85665
lhand -32.0404 -21.0235
lfingers 7.12502
lthumb -5.28773 8.89058
rfemur 7.64875 -9.28902 10.8593
rtibia 38.7563
rfoot 11.5924 13.4313
rtoes -14.2612
lfemur -36.0001 9.65692 -32.0447
ltibia 40.305
lfoot -14.1061 -8.38005
ltoes 3.17523
145
root -18.631 18.5886 -8.04661 -173.88 -199.221 -184.557
lowerback -4.86016 5.78195 2.38345
upperback 4.90242 7.70245 -1.76894
thorax 8.45278 3.97886 -2.22273
lowerneck -1.85487 1.28655 6.1131
upperneck 5.37636 1.64444 -2.86504
head 2.11332 0.877976 -1.93906
rclavicle -2.66371e-014 1.98785e-014
rhumerus -28.2961 29.3126 -102.115
rradius 84.9814
rwrist 12.3382
rhand -21.7378 27.9581
rfingers 7.12502
rthumb 4.66194 -1.97065
lclavicle -2.66371e-014 1.98785e-014
lhumerus -55.1055 -16.2605 95.7371
lradius 74.5086
lwrist 6.69513
lhand -32.012 -21.4033
lfingers 7.12502
lthumb -5.26034 8.51137
rfemur 7.02277 -9.19545 10.3593
rtibia 40.9955
rfoot 10.5583 13.6494
rtoes -13.1135
lfemur -35.2386 9.36453 -32.0842
ltibia 40.8832
lfoot -14.6669 -7.72393
ltoes 6.86354
146
root -18.5301 18.5256 -7.78771 -174.363 -199.392 -184.793
lowerback -4.7179 5.78465 2.6433
upperback 5.05178 7.70909 -1.99205
thorax 8.60467 4.01094 -2.60146
lowerneck -1.76868 1.35275 6.24828
upperneck 5.1394 1.7251 -2.74871
head 2.02431 0.920902 -1.92171
rclavicle -3.95581e-014 1.98785e-014
rhumerus -28.83 29.7385 -102.723
rradius 84.1594
rwrist 12.9368
rhand -21.7334 28.4328
rfingers 7.12502
rthumb 4.66623 -1.49583
lclavicle -3.95581e-014 1.98785e-014
lhumerus -54.5019 -15.8828 95.4506
lradius 75.2009
lwrist 6.50767
lhand -32.0115 -21.8894
lfingers 7.12502
lthumb -5.2598 8.02533
rfemur 6.36923 -8.94278 10.0472
rtibia 43.3208
rfoot 8.92051 13.7236
rtoes -12.7365
lfemur -34.4377 8.63841 -31.7952
ltibia 41.7248
lfoot -15.4109 -6.62669
ltoes 9.16207
147
root -18.4273 18.4524 -7.53192 -174.9 -199.584 -184.989
lowerback -4.47167 5.76983 2.872
upperback 5.20152 7.69581 -2.19422
thorax 8.68758 4.03211 -2.95589
lowerneck -1.60417 1.41804 6.34631
upperneck 4.86182 1.8119 -2.63235
head 1.9079 0.96567 -1.89766
rclavicle 6.59965e-014 -1.66979e-014
rhumerus -29.4445 30.0263 -103.322
rradius 83.3035
rwrist 13.1996
rhand -21.7325 28.356
rfingers 7.12502
rthumb 4.66702 -1.57257
lclavicle 6.59965e-014 -1.66979e-014
lhumerus -53.8677 -15.45 95.211
lradius 75.7602
lwrist 6.16009
lhand -32.1414 -22.4434
lfingers 7.12502
lthumb -5.38527 7.46821
rfemur 5.70495 -8.70824 9.67723
rtibia 45.7333
rfoot 6.87636 13.8725
rtoes -13.8713
lfemur -33.5494 7.50052 -31.4392
ltibia 42.7156
lfoot -16.0434 -5.07661
ltoes 12.059
148
root -18.3238 18.3655 -7.28123 -175.332 -199.76 -184.97
lowerback -4.22492 5.72329 2.91547
upperback 5.36203 7.66281 -2.48028
thorax 8.76644 4.03677 -3.30075
lowerneck -1.4889 1.49963 6.61044
upperneck 4.53358 1.9177 -2.6286
head 1.79028 1.01903 -1.94053
rclavicle 1.26228e-013 -1.66979e-014
rhumerus -30.0038 30.2553 -103.965
rradius 82.4868
rwrist 13.0967
rhand -21.188 27.7884
rfingers 7.12502
rthumb 5.19285 -2.12794
lclavicle 1.26228e-013 -1.66979e-014
lhumerus -53.1156 -14.9422 94.8639
lradius 76.2684
lwrist 5.68153
lhand -32.391 -22.846
lfingers 7.12502
lthumb -5.62621 7.05934
rfemur 4.92991 -8.63985 9.00163
rtibia 48.1653
rfoot 4.80604 14.1296
rtoes -15.4047
lfemur -32.6155 6.20044 -31.3111
ltibia 43.7516
lfoot -16.7273 -3.52608
ltoes 14.6777
149
root -18.2149 18.2826 -7.0309 -175.631 -199.923 -184.777
lowerback -4.02842 5.66731 2.76321
upperback 5.50595 7.63219 -2.77651
thorax 8.83 4.03037 -3.54598
lowerneck -1.42788 1.5919 6.80447
upperneck 4.27615 2.0367 -2.603
head 1.70495 1.07848 -1.96378
rclavicle -5.84427e-014 9.54166e-015
rhumerus -30.5634 30.2974 -104.561
rradius 81.7056
rwrist 12.9121
rhand -20.2988 27.0186
rfingers 7.12502
rthumb 6.05132 -2.87499
lclavicle -5.84427e-014 9.54166e-015
lhumerus -52.3223 -14.4676 94.5631
lradius 76.8199
lwrist 5.11595
lhand -32.7483 -22.9827
lfingers 7.12502
lthumb -5.97124 6.91311
rfemur 3.833 -8.59046 8.1237
rtibia 50.6259
rfoot 2.89356 14.2597
rtoes -16.9217
lfemur -31.7005 4.92877 -31.4278
ltibia 44.7936
lfoot -17.6888 -2.28836
ltoes 15.8556
150
root -18.1015 18.2118 -6.78256 -176.022 -200.119 -184.558
lowerback -3.66437 5.58826 2.575
upperback 5.67316 7.57354 -3.04999
thorax 8.8094 4.00812 -3.76723
lowerneck -1.45577 1.69888 6.92769
upperneck 4.07446 2.16922 -2.51199
head 1.652 1.14481 -1.95247
rclavicle 8.18993e-014 -1.82882e-014
rhumerus -31.1474 30.1747 -105.164
rradius 80.8031
rwrist 12.8616
rhand -19.6006 26.4893
rfingers 7.12502
rthumb 6.72543 -3.38384
lclavicle 8.18993e-014 -1.82882e-014
lhumerus -51.4612 -14.0475 94.2918
lradius 77.3782
lwrist 4.65931
lhand -33.1831 -23.1278
lfingers 7.12502
lthumb -6.39095 6.75576
rfemur 2.74957 -8.54371 7.20319
rtibia 52.9814
rfoot 1.21849 14.1834
rtoes -17.1508
lfemur -30.64 3.87658 -31.6463
ltibia 45.7987
lfoot -18.6794 -1.27954
ltoes 16.4922
151
root -17.9952 18.1216 -6.54226 -176.223 -200.314 -184.013
lowerback -3.34652 5.49668 2.05418
upperback 5.84059 7.52653 -3.40156
thorax 8.78196 3.97308 -3.88268
lowerneck -1.72004 1.82364 7.00904
upperneck 4.05045 2.30751 -2.36134
head 1.69703 1.21609 -1.91338
rclavicle 3.1408e-014 4.77083e-015
rhumerus -31.7923 29.8314 -105.761
rradius 79.8285
rwrist 12.8905
rhand -18.8116 26.0768
rfingers 7.12502
rthumb 7.48701 -3.77068
lclavicle 3.1408e-014 4.77083e-015
lhumerus -50.447 -13.6895 93.9962
lradius 77.8755
lwrist 4.33341
lhand -33.6241 -23.3498
lfingers 7.12502
lthumb -6.81673 6.5205
rfemur 1.51023 -8.54518 5.93702
rtibia 55.2983
rfoot -0.351856 14.0987
rtoes -17.0232
lfemur -29.7203 2.85312 -32.2761
ltibia 46.8059
lfoot -19.6186 -0.301904
ltoes 16.5864
152
root -17.8898 18.0325 -6.30607 -176.397 -200.524 -183.547
lowerback -3.05323 5.40193 1.58159
upperback 6.02041 7.46547 -3.70167
thorax 8.78112 3.93194 -3.96872
lowerneck -2.21164 1.98447 6.99697
upperneck 4.18859 2.47612 -2.12817
head 1.83331 1.30472 -1.82852
rclavicle 5.04913e-014 -2.06736e-014
rhumerus -32.4042 29.3695 -106.309
rradius 78.6991
rwrist 12.768
rhand -18.0539 25.6747
rfingers 7.12502
rthumb 8.21833 -4.14543
lclavicle 5.04913e-014 -2.06736e-014
lhumerus -49.1673 -13.4111 93.7613
lradius 78.4365
lwrist 4.17755
lhand -34.0172 -23.2546
lfingers 7.12502
lthumb -7.19618 6.60304
rfemur 0.139472 -8.55281 4.80905
rtibia 57.4968
rfoot -1.84849 13.9161
rtoes -17.2529
lfemur -28.8714 1.94849 -32.8705
ltibia 47.8072
lfoot -20.5509 0.59221
ltoes 16.2248
153
root -17.7833 17.946 -6.07263 -176.554 -200.763 -183.205
lowerback -2.8244 5.31091 1.20401
upperback 6.19282 7.39498 -3.92632
thorax 8.81168 3.88823 -4.02221
lowerneck -2.65846 2.12533 6.90955
upperneck 4.29858 2.62444 -1.90872
head 1.95018 1.38205 -1.7347
rclavicle 3.53837e-014 6.36111e-015
rhumerus -32.9736 28.7511 -106.741
rradius 77.5722
rwrist 12.7809
rhand -17.1334 24.8535
rfingers 7.12502
rthumb 9.10665 -4.92987
lclavicle 3.53837e-014 6.36111e-015
lhumerus -47.907 -13.1323 93.6727
lradius 79.0849
lwrist 4.02215
lhand -34.3887 -22.7708
lfingers 7.12502
lthumb -7.55472 7.07428
rfemur -1.40719 -8.60313 3.84218
rtibia 59.6255
rfoot -3.11034 13.6182
rtoes -17.4478
lfemur -28.0904 1.2014 -33.3709
ltibia 48.8155
lfoot -21.5 1.31258
ltoes 15.4806
154
root -17.6792 17.8637 -5.84353 -176.735 -201.05 -183.104
lowerback -2.61739 5.2092 1.07154
upperback 6.33638 7.28722 -4.09722
thorax 8.84592 3.83946 -4.15691
lowerneck -2.93786 2.25095 6.903
upperneck 4.2845 2.76759 -1.82315
head 2.00079 1.45391 -1.69972
rclavicle -2.10712e-014 1.59028e-014
rhumerus -33.5747 27.704 -107.157
rradius 76.3628
rwrist 13.0208
rhand -16.1134 24.1743
rfingers 7.12502
rthumb 10.0907 -5.5638
lclavicle -2.10712e-014 1.59028e-014
lhumerus -46.6302 -12.877 93.6368
lradius 79.7983
lwrist 3.94915
lhand -34.7111 -22.0603
lfingers 7.12502
lthumb -7.86593 7.77334
rfemur -3.10376 -8.65111 3.21462
rtibia 61.6467
rfoot -4.24466 13.1078
rtoes -17.6483
lfemur -27.3623 0.563434 -33.6201
ltibia 49.7723
lfoot -22.4041 1.82502
ltoes 14.7753
